<?xml version="1.0" standalone="no"?>
<!DOCTYPE svg PUBLIC "-//W3C//DTD SVG 20010904//EN"
 "http://www.w3.org/TR/2001/REC-SVG-20010904/DTD/svg10.dtd">
<svg version="1.0" xmlns="http://www.w3.org/2000/svg"
 width="354.000000pt" height="215.000000pt" viewBox="0 0 354.000000 215.000000"
 preserveAspectRatio="xMidYMid meet">

<g transform="translate(0.000000,215.000000) scale(0.100000,-0.100000)"
fill="#000000" stroke="none">
<path d="M2000 1913 c-19 -3 -39 -8 -45 -13 -5 -4 -27 -13 -47 -19 -41 -14
-88 -47 -88 -63 0 -6 12 1 26 16 24 23 78 46 112 46 6 0 12 5 12 10 0 6 23 10
50 10 49 0 68 -14 33 -23 -10 -3 3 -5 28 -6 51 -1 109 -18 109 -32 0 -4 -16
-11 -35 -15 -29 -5 -34 -10 -30 -25 7 -22 -7 -25 -24 -6 -14 18 -104 15 -126
-3 -13 -11 -23 -11 -52 -1 -28 10 -37 11 -46 1 -9 -10 -9 -11 0 -6 17 9 53
-11 53 -30 0 -11 -6 -13 -20 -9 -21 7 -26 -8 -14 -39 5 -13 9 -12 24 7 10 13
34 31 53 42 33 17 37 17 60 2 22 -14 26 -14 39 0 14 13 19 13 47 -2 18 -9 45
-37 62 -63 40 -63 39 -106 -6 -171 -19 -28 -35 -59 -35 -69 0 -38 -35 -61 -95
-61 -52 0 -57 3 -76 32 -10 18 -19 40 -19 49 0 9 -4 19 -8 22 -4 2 -6 -12 -4
-32 3 -20 9 -40 13 -43 5 -3 15 -25 23 -50 8 -24 14 -36 15 -26 1 9 5 17 10
17 5 0 12 -8 15 -17 4 -10 15 -29 26 -43 l19 -25 -5 40 c-4 35 -3 38 8 21 31
-44 50 -66 58 -66 4 0 11 15 14 34 4 19 15 45 26 59 31 40 60 115 60 158 0 49
13 50 33 2 15 -35 16 -36 16 -11 1 14 6 28 11 30 7 2 5 23 -5 57 -9 29 -14 55
-12 57 8 8 55 -72 66 -112 24 -86 4 -202 -44 -259 l-26 -30 6 35 c5 33 5 34
-8 12 -16 -28 -57 -58 -57 -42 0 6 5 21 12 33 10 20 10 21 -6 8 -24 -20 -42
-59 -51 -108 l-7 -42 -51 39 c-55 42 -65 44 -47 10 6 -12 9 -24 7 -26 -12 -13
-78 28 -101 62 -23 34 -26 36 -26 15 0 -31 -21 -22 -42 18 l-16 32 -4 -60 c-3
-59 -2 -60 14 -39 15 21 18 21 35 6 29 -26 117 -48 372 -93 59 -10 91 -21 108
-37 50 -47 43 -48 -244 -46 -148 0 -277 5 -288 10 -11 6 -31 22 -44 36 -18 21
-22 23 -16 7 20 -56 21 -55 -38 -55 -52 0 -56 2 -75 34 -24 40 -67 56 -152 56
-31 0 -61 5 -68 12 -17 17 -15 43 4 58 8 8 20 23 26 34 7 14 -2 9 -26 -13 -20
-19 -36 -42 -36 -50 0 -36 18 -44 105 -51 89 -7 136 -28 143 -64 4 -19 -43
-23 -51 -3 -4 10 -6 10 -6 0 -1 -10 -43 -13 -175 -13 l-175 0 -26 33 c-15 18
-22 22 -16 10 20 -40 14 -43 -69 -43 -75 0 -83 2 -105 26 -14 15 -25 31 -25
36 0 4 -33 41 -74 81 -47 47 -78 86 -84 108 -6 20 -10 26 -11 14 -1 -40 37
-102 96 -155 64 -58 90 -97 76 -111 -4 -4 -37 -10 -73 -12 -36 -2 340 -3 835
-4 632 0 878 3 825 10 -68 9 -77 13 -95 40 -16 25 -31 33 -77 43 -52 10 -85
29 -161 94 -5 4 6 29 22 56 64 101 69 207 17 344 -35 90 -52 175 -37 184 4 3
7 15 6 28 -1 19 -13 27 -61 43 -32 11 -74 28 -92 38 -36 20 -95 27 -152 20z
m236 -147 c6 -25 -10 -66 -25 -66 -5 0 -11 12 -14 28 -3 15 -9 35 -12 45 -6
13 -2 17 19 17 19 0 27 -6 32 -24z"/>
<path d="M1795 1780 c3 -19 2 -48 -4 -63 -6 -16 -14 -63 -17 -105 -3 -42 -10
-82 -15 -89 -38 -45 -209 -83 -373 -83 -172 0 -278 -36 -347 -119 l-30 -36
-20 24 c-10 13 -19 35 -19 50 0 50 33 84 133 139 54 29 97 56 97 58 0 11 -199
-98 -220 -121 -34 -37 -40 -120 -10 -157 26 -33 46 -36 55 -7 10 32 70 83 133
115 53 26 67 29 182 31 197 3 333 33 406 88 l33 25 17 -55 c23 -73 31 -62 10
14 -19 66 -17 204 3 254 9 23 8 33 -5 50 -15 21 -15 21 -9 -13z"/>
<path d="M1065 1769 c-22 -11 -54 -18 -72 -16 -31 3 -31 3 -17 -25 33 -64 122
-85 198 -48 39 20 48 21 63 9 16 -12 15 -11 -1 9 -22 26 -43 27 -109 7 -39
-12 -55 -12 -84 -2 -37 12 -57 37 -30 37 8 0 34 9 58 20 53 24 90 25 129 5 17
-9 30 -13 30 -11 0 3 -13 12 -30 21 -38 20 -86 18 -135 -6z"/>
<path d="M1945 1660 c-3 -6 4 -14 17 -19 29 -11 35 -6 18 14 -14 17 -26 19
-35 5z"/>
<path d="M2110 1649 c-7 -11 -9 -23 -6 -27 3 -3 6 -1 6 5 0 6 12 14 27 18 21
5 24 8 12 16 -21 13 -27 11 -39 -12z"/>
<path d="M1140 1575 c-25 -13 -41 -24 -37 -25 11 0 87 39 87 45 0 7 0 7 -50
-20z"/>
<path d="M1224 1578 l-19 -23 23 19 c21 18 27 26 19 26 -2 0 -12 -10 -23 -22z"/>
<path d="M1020 1519 c-30 -16 -71 -46 -90 -67 l-35 -37 35 33 c20 17 65 48
100 67 36 19 61 35 55 35 -5 0 -35 -14 -65 -31z"/>
<path d="M2023 1529 c19 -11 23 -39 8 -54 -6 -6 -1 -10 14 -10 15 0 21 4 15
10 -14 13 -12 31 6 49 14 15 12 16 -23 16 -31 -1 -35 -3 -20 -11z"/>
<path d="M2242 828 c-66 -23 -121 -120 -108 -192 25 -131 183 -186 286 -100
43 37 60 75 60 137 0 63 -26 110 -77 139 -39 23 -117 31 -161 16z m131 -68
c61 -48 52 -161 -15 -196 -62 -32 -136 2 -154 70 -26 104 89 189 169 126z"/>
<path d="M448 818 c8 -8 12 -57 12 -155 0 -125 -2 -143 -17 -152 -13 -7 34
-10 159 -11 149 0 176 2 172 14 -3 8 2 28 11 45 15 29 19 31 75 31 56 0 60 -2
75 -31 9 -17 14 -37 11 -45 -4 -11 6 -14 50 -14 l55 0 -18 24 c-10 13 -45 87
-78 165 l-60 141 -37 0 c-30 0 -38 -4 -38 -19 0 -19 -105 -267 -122 -288 -19
-23 -27 -14 -17 19 5 18 9 34 9 36 0 1 -9 -2 -19 -8 -11 -5 -47 -10 -81 -10
l-61 0 3 135 3 135 -49 0 c-39 0 -47 -3 -38 -12z m430 -123 c19 -42 15 -55
-18 -55 -20 0 -30 5 -30 15 0 19 21 65 30 65 4 0 12 -11 18 -25z"/>
<path d="M1270 812 c0 -24 -108 -271 -128 -294 -14 -17 -12 -18 36 -18 40 0
50 3 46 14 -3 8 2 28 11 45 15 29 19 31 75 31 56 0 60 -2 75 -31 9 -17 14 -37
11 -45 -4 -11 6 -14 50 -14 l55 0 -18 23 c-10 13 -45 87 -78 165 l-60 142 -37
0 c-30 0 -38 -4 -38 -18z m58 -117 c19 -42 15 -55 -18 -55 -20 0 -30 5 -30 15
0 19 21 65 30 65 4 0 12 -11 18 -25z"/>
<path d="M1488 818 c8 -8 12 -51 12 -129 0 -110 2 -119 25 -147 46 -55 143
-65 200 -21 42 34 49 59 55 187 l5 122 -50 0 c-38 0 -46 -3 -37 -12 8 -8 12
-48 12 -114 0 -87 -3 -105 -21 -128 -24 -31 -66 -35 -99 -8 -20 16 -21 24 -18
140 l3 122 -49 0 c-39 0 -47 -3 -38 -12z"/>
<path d="M1848 673 c2 -120 0 -158 -10 -164 -8 -5 14 -9 52 -9 49 1 61 3 48
11 -14 8 -18 23 -18 64 0 48 2 55 20 55 13 0 36 -21 63 -56 101 -136 133 -157
202 -135 18 6 23 10 12 10 -33 2 -73 38 -127 117 -45 65 -51 79 -38 88 44 33
52 113 13 151 -22 23 -31 25 -122 25 l-98 0 3 -157z m164 85 c21 -34 -8 -68
-58 -68 -33 0 -34 1 -34 38 0 21 3 42 8 46 10 11 74 -1 84 -16z"/>
<path d="M2518 823 c17 -7 17 -294 0 -311 -9 -9 1 -12 47 -12 46 0 56 3 47 12
-7 7 -12 36 -12 66 0 50 2 53 22 50 15 -2 44 -31 83 -85 33 -44 72 -88 87 -97
29 -18 75 -21 98 -6 13 8 13 10 -2 10 -26 0 -69 42 -122 119 l-49 71 21 23
c41 44 41 109 0 147 -19 18 -34 20 -127 19 -58 0 -100 -3 -93 -6z m163 -62
c22 -18 22 -19 6 -45 -13 -20 -26 -26 -52 -26 -34 0 -35 1 -35 38 0 21 3 42 7
45 12 13 51 7 74 -12z"/>
<path d="M2925 818 c3 -8 -21 -75 -54 -150 -55 -128 -58 -138 -42 -152 10 -9
27 -16 38 -16 16 0 20 5 16 20 -3 11 2 31 11 45 14 22 24 25 71 25 51 0 57 -2
75 -32 14 -24 16 -35 8 -45 -8 -10 1 -13 47 -13 45 0 55 3 47 13 -6 6 -40 80
-75 162 l-66 150 -40 3 c-31 2 -40 0 -36 -10z m60 -128 c22 -42 19 -50 -20
-50 -19 0 -35 2 -35 5 0 11 29 75 34 75 3 0 12 -13 21 -30z"/>
<path d="M1038 338 c28 -14 39 -52 21 -76 -13 -15 -12 -16 4 -3 24 19 21 57
-5 75 -12 9 -27 16 -33 15 -5 0 0 -5 13 -11z"/>
<path d="M1513 300 c0 -30 2 -43 4 -27 2 15 2 39 0 55 -2 15 -4 2 -4 -28z"/>
<path d="M1592 334 c-32 -22 -25 -84 11 -84 5 0 1 7 -7 16 -22 21 -20 39 6 64
26 24 21 26 -10 4z"/>
<path d="M2430 302 c0 -29 4 -52 8 -52 5 0 7 14 4 30 -5 38 7 38 33 0 30 -45
45 -39 44 18 -1 26 -4 36 -6 22 -8 -52 -13 -53 -44 -14 -17 22 -33 41 -35 43
-2 2 -4 -19 -4 -47z"/>
<path d="M850 295 c0 -25 3 -45 8 -45 4 0 7 20 7 45 0 25 -3 45 -7 45 -5 0 -8
-20 -8 -45z"/>
<path d="M903 322 c10 -10 17 -22 17 -27 0 -5 -7 -17 -17 -27 -18 -20 -4 -25
15 -6 15 15 15 51 0 66 -19 19 -33 14 -15 -6z"/>
<path d="M992 328 c-23 -23 -8 -78 21 -78 5 0 1 7 -7 16 -19 18 -21 45 -4 62
7 7 10 12 7 12 -3 0 -10 -5 -17 -12z"/>
<path d="M1136 325 c4 -8 12 -15 19 -15 7 0 16 -8 20 -17 6 -17 7 -17 19 0 19
25 26 21 26 -13 0 -16 3 -30 8 -30 4 0 6 21 4 46 l-4 45 -22 -20 -23 -21 -18
20 c-21 24 -37 26 -29 5z"/>
<path d="M1364 295 c0 -25 3 -45 8 -45 4 0 8 15 8 33 l1 32 27 -33 c15 -18 30
-32 35 -32 4 0 6 21 6 48 l-2 47 -6 -40 -6 -40 -30 37 c-16 21 -32 38 -35 38
-3 0 -5 -20 -6 -45z"/>
<path d="M1712 295 c-12 -25 -17 -45 -12 -45 6 0 10 5 10 10 0 14 43 13 58 -2
7 -7 12 -9 12 -5 0 14 -33 87 -39 87 -4 0 -17 -20 -29 -45z m41 5 c4 -15 0
-20 -14 -20 -21 0 -22 1 -13 24 8 22 21 20 27 -4z"/>
<path d="M1835 295 c0 -25 3 -45 8 -45 4 0 7 15 7 33 l1 32 27 -33 c15 -18 30
-32 35 -32 4 0 6 21 6 48 l-2 47 -6 -39 -6 -40 -28 37 c-15 20 -31 37 -35 37
-4 0 -7 -20 -7 -45z"/>
<path d="M2033 295 c0 -25 3 -45 7 -45 4 0 8 20 7 45 0 25 -4 45 -7 45 -4 0
-7 -20 -7 -45z"/>
<path d="M2084 324 c9 -8 16 -22 16 -29 0 -7 -7 -21 -16 -29 -8 -9 -12 -16 -7
-16 16 0 33 24 33 45 0 21 -17 45 -33 45 -5 0 -1 -7 7 -16z"/>
<path d="M2160 295 c0 -25 4 -45 10 -45 5 0 7 7 4 15 -4 8 1 17 10 21 15 6 15
7 0 19 -9 6 -14 17 -10 23 4 7 2 12 -3 12 -6 0 -11 -20 -11 -45z"/>
<path d="M2264 295 c1 -42 16 -67 16 -26 0 11 8 22 18 24 16 4 16 5 0 6 -11 1
-18 9 -18 21 0 11 -4 20 -8 20 -5 0 -8 -20 -8 -45z"/>
<path d="M2363 295 c0 -27 2 -38 4 -22 2 15 2 37 0 50 -2 12 -4 0 -4 -28z"/>
<path d="M2575 295 c0 -25 3 -45 8 -45 4 0 7 20 7 45 0 25 -3 45 -7 45 -5 0
-8 -20 -8 -45z"/>
<path d="M2683 295 c0 -27 2 -38 4 -22 2 15 2 37 0 50 -2 12 -4 0 -4 -28z"/>
<path d="M2728 329 c18 -19 15 -56 -5 -68 -10 -6 -13 -11 -7 -11 33 -1 48 72
17 85 -15 5 -16 4 -5 -6z"/>
<path d="M1290 285 c0 -19 4 -35 8 -35 4 0 6 16 4 35 -2 19 -6 35 -8 35 -2 0
-4 -16 -4 -35z"/>
<path d="M663 293 c26 -2 68 -2 95 0 26 2 4 3 -48 3 -52 0 -74 -1 -47 -3z"/>
<path d="M2853 293 c26 -2 67 -2 90 0 23 2 2 3 -48 3 -49 0 -68 -1 -42 -3z"/>
<path d="M1130 272 c0 -12 4 -22 9 -22 10 0 9 26 -2 36 -4 4 -7 -2 -7 -14z"/>
</g>
</svg>
